<svg width="606" height="230" viewBox="0 0 606 230" fill="none" xmlns="http://www.w3.org/2000/svg">
<g clip-path="url(#clip0_2_9130)">
<path d="M16.8265 109.003V20.8923H0V0.908356H55.0097V20.8923H38.1832V109.003H16.8111H16.8265Z" fill="#012233"/>
<path d="M62.3597 109.003V0.908356H83.7164V38.7824H99.6337V0.908356H121.006V109.003H99.6337V58.7663H83.7164V109.003H62.3597Z" fill="#012233"/>
<path d="M175.137 109.003H129.681V0.908356H174.69V20.8923H151.053V41.5075H172.872V61.4914H151.053V89.0193H175.153V109.003H175.137Z" fill="#012233"/>
<path d="M210.947 0.908356H240.132C247.59 0.908356 253.83 3.09458 258.854 7.45163C261.211 9.57627 263.261 12.2706 264.986 15.5345C266.712 18.7984 267.976 22.3395 268.761 26.1577C269.609 30.2684 270.04 34.7486 270.04 39.5984V70.2979C270.04 75.3169 269.609 79.828 268.761 83.8309C267.914 87.8338 266.635 91.3749 264.94 94.4541C263.245 97.6719 261.211 100.32 258.854 102.398C256.496 104.492 253.707 106.109 250.487 107.264C247.389 108.418 243.938 108.988 240.116 108.988H210.932V0.908356H210.947ZM232.32 89.0193H235.324C244.231 89.0193 248.684 82.784 248.684 70.3133V39.6138C248.684 27.143 244.231 20.9077 235.324 20.9077H232.32V89.0347V89.0193Z" fill="#012233"/>
<path d="M324.187 109.003H278.731V0.908356H323.74V20.8923H300.103V41.5075H321.922V61.4914H300.103V89.0193H324.203V109.003H324.187Z" fill="#012233"/>
<path d="M366.069 33.3322V26.9737C366.069 21.1078 364.096 18.1672 360.167 18.1672C358.349 18.1672 356.931 18.86 355.899 20.2611C354.866 21.6621 354.358 23.6482 354.358 26.2501C354.358 27.0353 354.435 27.8821 354.589 28.7904C354.743 29.6988 355.113 30.6687 355.729 31.7003C356.207 32.6086 356.946 33.6863 357.917 34.918C358.888 36.1651 360.105 37.4737 361.554 38.8748C362.278 39.66 363.095 40.4759 364.004 41.3227C364.851 42.2311 365.822 43.1702 366.916 44.1402C370.183 47.1116 373.203 50.0214 375.961 52.8543C378.719 55.7025 380.969 58.2121 382.741 60.3983C384.498 62.7077 385.884 64.9093 386.917 67.0339C387.949 69.1586 388.704 71.3294 389.182 73.5772C389.428 74.7319 389.598 75.902 389.675 77.1183C389.767 78.3346 389.814 79.597 389.814 80.9365C389.814 84.5699 389.413 87.9108 388.627 90.9746C387.841 94.0384 386.624 96.7789 384.991 99.1961C383.481 101.505 381.493 103.461 379.043 105.093C376.593 106.725 373.912 107.91 370.999 108.634C367.779 109.481 364.327 109.912 360.629 109.912C353.171 109.912 347.116 108.31 342.447 105.093C337.839 101.952 334.773 97.2562 333.263 91.0208C332.477 87.9878 332.077 84.5083 332.077 80.567V71.0215H352.077V80.644C352.077 84.1542 352.801 86.8793 354.265 88.8192C355.59 90.7591 357.655 91.729 360.444 91.729C361.415 91.729 362.355 91.5905 363.264 91.3133C364.173 91.0362 364.928 90.6051 365.545 89.9893C366.084 89.4504 366.608 88.7576 367.085 87.9416C367.563 87.1256 367.933 86.1095 368.18 84.8932C368.241 84.3544 368.303 83.7539 368.364 83.1227C368.426 82.4915 368.457 81.8294 368.457 81.1674C368.457 79.8896 368.364 78.7964 368.18 77.8573C367.995 76.9181 367.64 75.902 367.085 74.8089C366.485 73.7158 365.652 72.5919 364.589 71.4526C363.526 70.2979 362.309 69.0354 360.907 67.6344C360.121 66.9108 359.258 66.1256 358.318 65.2788C357.378 64.432 356.361 63.5237 355.267 62.5537C351.877 59.5207 348.918 56.7495 346.407 54.2399C343.895 51.7304 341.753 49.2978 339.997 46.9268C338.24 44.6328 336.853 42.4004 335.867 40.245C334.866 38.0896 334.126 35.9033 333.633 33.6555C333.386 32.5624 333.217 31.4231 333.14 30.2068C333.047 28.9906 333.001 27.7589 333.001 26.481C333.001 23.1555 333.355 20.0455 334.049 17.1665C334.742 14.2874 335.852 11.7625 337.362 9.57628C340.336 5.34239 344.635 2.49414 350.274 1.03153C353.063 0.307918 356.238 -0.0615845 359.828 -0.0615845C366.608 -0.0615845 372.186 1.29326 376.562 4.03374C378.01 4.9421 379.567 6.35852 381.2 8.29841C382.833 10.2383 384.112 12.871 385.021 16.1965C385.746 18.9216 386.115 21.9546 386.115 25.2801V33.2706H366.115L366.069 33.3322Z" fill="#012233"/>
<path d="M399.983 109.003V0.908356H421.34V109.003H399.983Z" fill="#012233"/>
<path d="M533.363 51.4994V65.0325C533.363 69.8822 532.484 74.5318 530.728 78.9812C528.971 83.4306 526.521 87.5413 523.362 91.2825C520.203 95.0392 516.505 98.3031 512.268 101.09C508.03 103.876 503.392 106.032 498.354 107.541C493.207 109.111 487.86 109.896 482.359 109.896C476.473 109.896 470.941 109.003 465.718 107.217C460.509 105.431 455.779 102.906 451.542 99.6271C448.028 96.9021 444.607 93.3302 441.264 88.9116C437.935 84.4929 435.362 79.1044 433.529 72.7458C431.834 67.0493 430.986 61.1219 430.986 54.9481C430.986 48.7743 431.787 42.7083 433.39 37.289C434.992 31.8696 437.288 26.8813 440.247 22.3395C443.575 17.1973 447.504 13.0096 452.019 9.80722C456.534 6.60486 461.003 4.23388 465.425 2.72508C468.091 1.8783 470.895 1.21628 473.838 0.723609C476.781 0.246335 479.817 0 482.976 0C488.061 0 492.837 0.600442 497.29 1.81672C501.744 3.033 505.935 4.81893 509.879 7.17451C513.454 9.36073 516.767 12.1166 519.834 15.4421C522.9 18.7677 525.427 22.6166 527.43 26.9737C528.401 29.0983 529.233 31.3 529.926 33.6093C530.62 35.9187 531.159 38.3359 531.514 40.8762H509.695C509.325 38.9363 508.616 36.8887 507.553 34.7486C506.49 32.5932 505.026 30.5609 503.146 28.6211C499.756 25.2955 495.626 23.0169 490.788 21.8161C488.307 21.2156 485.703 20.9077 482.976 20.9077C479.524 20.9077 476.18 21.4465 472.975 22.4935C469.77 23.5558 466.92 25.08 464.423 27.0815C459.277 31.2538 455.733 36.8271 453.791 43.8015C452.82 47.3117 452.343 51.0991 452.343 55.1637C452.343 59.2282 452.867 63.2773 453.93 66.7876C454.993 70.2979 456.303 73.2385 457.89 75.5941C459.523 78.196 461.573 80.5362 464.023 82.5838C466.473 84.6469 469.4 86.2481 472.79 87.4028C475.934 88.4959 479.37 89.0347 483.068 89.0347C485.734 89.0347 488.307 88.7268 490.788 88.1264C493.269 87.5259 495.58 86.6792 497.691 85.586C499.694 84.5545 501.589 83.2459 503.377 81.6293C505.164 80.0281 506.659 78.196 507.876 76.1329C509.094 74.193 510.064 72.053 510.789 69.682H483.068V51.5148H533.347L533.363 51.4994Z" fill="#012233"/>
<path d="M564.781 82.5684V109.003H543.425V0.908356H568.433L576.523 29.9759C577.247 32.4546 578.002 35.2259 578.803 38.2897C579.589 41.3535 580.344 44.4019 581.068 47.4657C581.793 50.5295 582.394 53.2392 582.887 55.5947C583.981 60.6292 584.952 65.2788 585.799 69.5897C586.646 73.8851 587.494 78.3038 588.341 82.8456C588.711 85.0318 589.035 87.141 589.343 89.2041C589.651 91.3287 589.944 93.3764 590.252 95.3779H592.07C591.577 92.1755 591.13 89.2811 590.714 86.7099C590.283 84.1388 589.867 81.4907 589.435 78.7656C589.004 76.0406 588.557 72.8074 588.064 69.0508C587.633 66.3873 587.217 63.3697 586.785 60.0134C586.354 56.6571 585.969 53.3161 585.599 50.0214C585.229 46.7267 584.998 43.8015 584.874 41.2611C584.69 39.0133 584.551 36.8271 584.458 34.6717C584.366 32.5162 584.32 30.4532 584.32 28.4517V0.908356H605.692V109.003H582.055L573.688 80.9365C573.087 78.9966 572.378 76.5794 571.592 73.6696C570.806 70.7597 569.974 67.6652 569.096 64.355C568.217 61.0603 567.416 57.7964 566.692 54.594C565.66 50.1754 564.627 45.6182 563.595 40.9224C562.562 36.2267 561.653 31.6079 560.867 27.0661C560.436 24.8798 560.051 22.7398 559.681 20.6152C559.311 18.4905 558.988 16.4737 558.679 14.5338H556.861C557.462 18.4751 558.14 22.632 558.864 27.0199C559.589 31.4077 560.313 36.0573 561.052 40.9686C561.653 45.6952 562.27 50.4679 562.871 55.2714C563.472 60.0904 563.965 64.8015 564.319 69.3895C564.442 71.6989 564.55 73.9467 564.643 76.1637C564.735 78.3807 564.781 80.5054 564.781 82.5684Z" fill="#012233"/>
<path d="M8.96796 120.997H40.7873C48.8461 120.997 55.1792 123.999 59.7864 129.988C61.9745 132.836 63.6694 136.346 64.8713 140.519C66.0886 144.691 66.6896 149.356 66.6896 154.514C66.6896 158.517 66.3198 162.258 65.5956 165.737C64.8713 169.217 63.7157 172.388 62.144 175.237C60.6339 177.962 58.8619 180.271 56.8279 182.134C54.7939 184.012 52.3901 185.46 49.6011 186.491C46.9354 187.461 43.9923 187.938 40.7873 187.938H30.3246V229.092H8.96796V120.997ZM30.3246 167.954H35.3325C36.4266 167.954 37.5206 167.785 38.5992 167.462C39.6932 167.123 40.6948 166.507 41.6039 165.599C42.4514 164.752 43.1294 163.844 43.6533 162.874C44.1618 161.904 44.6087 160.626 44.9785 159.055C45.1018 158.393 45.1942 157.685 45.2558 156.915C45.3175 156.161 45.3483 155.36 45.3483 154.514C45.3483 152.943 45.2096 151.434 44.9323 150.018C44.6549 148.602 44.2234 147.308 43.6071 146.154C43.0061 145.061 42.3127 144.137 41.5577 143.382C40.8027 142.628 39.8781 142.012 38.7841 141.519C37.8134 141.15 36.6577 140.981 35.3325 140.981H30.3246V167.954Z" fill="#012233"/>
<path d="M72.1597 229.092V120.997H93.5164V209.108H115.798V229.092H72.1597Z" fill="#012233"/>
<path d="M119.711 229.092L136.615 120.997H167.155L184.059 229.092H162.702L159.528 204.289H144.258L141.084 229.092H119.711ZM146.8 184.305H156.986L153.349 150.418C153.226 149.033 153.133 147.77 153.072 146.646C153.01 145.522 152.948 144.322 152.887 143.013C152.825 141.704 152.794 140.118 152.794 138.24H150.976V142.151C150.914 142.643 150.884 143.09 150.884 143.506C150.884 144.106 150.853 144.737 150.791 145.368C150.73 146 150.699 146.631 150.699 147.231C150.699 148.448 150.606 149.51 150.421 150.418L146.785 184.305H146.8Z" fill="#012233"/>
<path d="M199.345 120.997L206.34 150.695C206.71 152.143 206.957 153.297 207.111 154.144C207.265 154.991 207.419 155.853 207.557 156.731C207.712 157.608 207.912 158.871 208.143 160.503C208.39 162.073 208.59 163.797 208.775 165.676C208.96 167.554 209.083 169.155 209.145 170.495C209.145 171.218 209.175 171.973 209.237 172.758V175.021H211.055C211.055 173.697 211.102 172.157 211.194 170.433C211.286 168.709 211.425 167.092 211.61 165.568C211.733 163.936 211.903 162.258 212.103 160.533C212.319 158.809 212.596 157.1 212.966 155.407C213.089 154.621 213.243 153.836 213.413 153.051C213.598 152.266 213.783 151.481 213.952 150.695L220.948 120.997H242.304L220.855 191.033V229.092H199.483V191.033L177.942 120.997H199.314H199.345Z" fill="#012233"/>
<path d="M306.606 147.154C306.606 154.483 304.972 160.01 301.69 163.736C298.408 167.462 293.138 169.925 285.865 171.141V172.589C288.716 172.958 291.335 173.589 293.724 174.498C296.112 175.406 298.254 176.684 300.134 178.316C301.952 179.886 303.493 181.795 304.772 184.043C306.051 186.291 306.96 188.646 307.499 191.125C308.1 193.85 308.408 196.883 308.408 200.209C308.408 203.719 308.023 206.998 307.268 210.016C306.513 213.049 305.373 215.743 303.863 218.099C302.23 220.578 300.319 222.625 298.131 224.227C295.943 225.828 293.554 227.029 290.95 227.814C288.161 228.661 285.126 229.092 281.859 229.092H249.762V120.997H281.042C284.14 120.997 287.021 121.382 289.718 122.136C292.414 122.89 294.787 123.999 296.852 125.446C298.855 126.955 300.565 128.71 301.983 130.712C303.401 132.713 304.572 135.161 305.481 138.071C305.851 139.472 306.113 140.919 306.297 142.428C306.482 143.937 306.575 145.522 306.575 147.154H306.606ZM275.603 140.981H271.15V163.413H275.603C278.084 163.413 280.118 162.75 281.69 161.411C282.414 160.811 283.045 160.087 283.554 159.225C284.062 158.378 284.509 157.316 284.879 156.053C285.002 155.453 285.095 154.822 285.157 154.19C285.218 153.559 285.249 152.912 285.249 152.235C285.249 149.448 284.71 147.124 283.616 145.245C283.076 144.399 282.398 143.629 281.612 142.936C280.827 142.243 279.948 141.735 278.978 141.443C277.822 141.135 276.697 140.981 275.618 140.981H275.603ZM271.15 209.108H276.697C279.301 209.108 281.458 208.384 283.153 206.921C284.062 206.198 284.787 205.305 285.341 204.243C285.881 203.18 286.312 201.995 286.62 200.655C286.929 199.208 287.067 197.715 287.067 196.206C287.067 194.697 286.898 193.311 286.574 191.895C286.235 190.479 285.804 189.247 285.249 188.215C283.97 186.029 282.306 184.613 280.256 183.951C279.162 183.581 277.976 183.412 276.712 183.412H271.165V209.123L271.15 209.108Z" fill="#012233"/>
<path d="M312.877 174.405C312.877 168.416 313.817 162.735 315.697 157.377C317.577 152.02 320.212 147.031 323.602 142.428C326.93 137.886 330.921 133.945 335.559 130.619C340.197 127.294 345.174 124.723 350.521 122.906C353.187 121.997 355.96 121.305 358.842 120.812C361.723 120.335 364.651 120.088 367.609 120.088C373.727 120.088 379.49 121.043 384.883 122.952C390.276 124.861 395.222 127.417 399.706 130.635C404.853 134.453 409.044 138.702 412.249 143.398C415.454 148.094 417.858 152.743 419.429 157.347C420.339 160.072 421.032 162.858 421.525 165.707C422.003 168.555 422.249 171.465 422.249 174.421C422.249 180.348 421.325 186.137 419.476 191.772C417.627 197.407 415.038 202.549 411.71 207.214C408.32 211.817 404.298 215.836 399.66 219.254C395.022 222.672 390.076 225.289 384.79 227.106C379.274 229.045 373.542 230.015 367.609 230.015C361.677 230.015 355.791 229.045 350.336 227.106C344.881 225.166 339.904 222.533 335.42 219.207C330.875 215.82 326.915 211.848 323.555 207.306C320.196 202.765 317.577 197.622 315.697 191.864C314.788 189.139 314.094 186.306 313.601 183.366C313.108 180.425 312.877 177.454 312.877 174.421V174.405ZM334.234 174.59C334.234 178.285 334.804 181.918 335.96 185.49C337.115 189.062 338.687 192.218 340.69 194.943C342.878 197.976 345.359 200.532 348.148 202.626C350.937 204.72 353.942 206.275 357.147 207.306C360.537 208.523 364.05 209.123 367.686 209.123C371.323 209.123 374.805 208.538 378.134 207.353C381.462 206.167 384.497 204.52 387.225 202.41C389.952 200.347 392.341 197.884 394.405 195.005C396.47 192.126 398.042 188.97 399.136 185.506C399.675 183.812 400.107 182.057 400.415 180.24C400.723 178.424 400.862 176.545 400.862 174.605C400.862 171.034 400.292 167.539 399.136 164.121C397.98 160.703 396.409 157.624 394.405 154.899C390.168 149.141 384.713 145.091 378.041 142.72C374.713 141.566 371.246 140.996 367.671 140.996C364.759 140.996 361.615 141.473 358.21 142.412C354.82 143.352 351.415 145.061 348.025 147.539C345.236 149.602 342.801 152.02 340.705 154.806C338.61 157.593 337.023 160.657 335.929 163.982C335.389 165.676 334.958 167.416 334.65 169.201C334.342 170.987 334.188 172.789 334.188 174.605L334.234 174.59Z" fill="#012233"/>
<path d="M426.98 174.405C426.98 168.416 427.92 162.735 429.8 157.377C431.679 152.02 434.314 147.031 437.704 142.428C441.033 137.886 445.024 133.945 449.662 130.619C454.3 127.294 459.277 124.723 464.624 122.906C467.289 121.997 470.063 121.305 472.944 120.812C475.826 120.335 478.754 120.088 481.712 120.088C487.829 120.088 493.592 121.043 498.985 122.952C504.378 124.861 509.325 127.417 513.809 130.635C518.955 134.453 523.146 138.702 526.352 143.398C529.557 148.094 531.96 152.743 533.532 157.347C534.441 160.072 535.135 162.858 535.628 165.707C536.105 168.555 536.352 171.465 536.352 174.421C536.352 180.348 535.427 186.137 533.578 191.772C531.729 197.407 529.141 202.549 525.812 207.214C522.422 211.817 518.401 215.836 513.762 219.254C509.124 222.672 504.178 225.289 498.893 227.106C493.377 229.045 487.644 230.015 481.712 230.015C475.78 230.015 469.893 229.045 464.439 227.106C458.984 225.166 454.007 222.533 449.523 219.207C444.977 215.82 441.017 211.848 437.658 207.306C434.299 202.765 431.679 197.622 429.8 191.864C428.89 189.139 428.197 186.306 427.704 183.366C427.211 180.425 426.98 177.454 426.98 174.421V174.405ZM448.352 174.59C448.352 178.285 448.922 181.918 450.078 185.49C451.233 189.062 452.805 192.218 454.808 194.943C456.996 197.976 459.477 200.532 462.266 202.626C465.055 204.72 468.06 206.275 471.265 207.306C474.655 208.523 478.168 209.123 481.804 209.123C485.441 209.123 488.923 208.538 492.252 207.353C495.58 206.167 498.616 204.52 501.343 202.41C504.07 200.347 506.459 197.884 508.523 195.005C510.588 192.126 512.16 188.97 513.254 185.506C513.793 183.812 514.225 182.057 514.533 180.24C514.841 178.424 514.98 176.545 514.98 174.605C514.98 171.034 514.41 167.539 513.254 164.121C512.098 160.703 510.527 157.624 508.523 154.899C504.286 149.141 498.831 145.091 492.159 142.72C488.831 141.566 485.364 140.996 481.789 140.996C478.877 140.996 475.733 141.473 472.328 142.412C468.938 143.352 465.533 145.061 462.143 147.539C459.354 149.602 456.919 152.02 454.824 154.806C452.728 157.593 451.141 160.657 450.047 163.982C449.508 165.676 449.076 167.416 448.768 169.201C448.46 170.987 448.306 172.789 448.306 174.605L448.352 174.59Z" fill="#012233"/>
<path d="M566.908 120.997V140.796C566.908 142.305 566.831 143.89 566.677 145.522C566.523 147.154 566.291 148.94 565.999 150.88C565.629 152.82 565.274 154.822 564.905 156.869C564.535 158.932 564.088 161.072 563.549 163.32C563.24 164.413 562.978 165.506 562.732 166.584C562.424 167.739 562.131 168.893 561.823 170.033H563.641C563.826 169.309 564.088 168.231 564.411 166.815C564.75 165.399 565.12 163.951 565.552 162.504C565.968 161.057 566.368 159.81 566.738 158.778C567.339 156.838 567.817 155.376 568.14 154.375C568.479 153.374 568.818 152.389 569.188 151.419C569.558 150.449 570.097 149.094 570.822 147.339C571.191 146.431 571.546 145.538 571.916 144.66C572.285 143.783 572.64 142.951 573.01 142.166L582.825 120.997H604.197L583.734 163.32L606.015 229.092H584.659L570.39 186.938L566.939 192.018V229.076H545.582V120.981H566.939L566.908 120.997Z" fill="#012233"/>
</g>
<defs>
<clipPath id="clip0_2_9130">
<rect width="606" height="230" fill="white"/>
</clipPath>
</defs>
</svg>
