<svg width="157" height="44" viewBox="0 0 157 44" fill="none" xmlns="http://www.w3.org/2000/svg">
<g clip-path="url(#clip0_2058_3320)">
<path d="M2.95893 19.162V3.67272H0V0.159683H9.6765V3.67272H6.71757V19.162H2.95893Z" fill="black"/>
<path d="M11.0323 19.162V0.159683H14.7909V6.81848H17.5899V0.159683H21.3485V19.162H17.5899V10.3315H14.7909V19.162H11.0323Z" fill="black"/>
<path d="M31.4192 19.162H23.4221V0.159683H31.3393V3.67272H27.1808V7.29753H31.0194V10.8106H27.1808V15.649H31.4192V19.162Z" fill="black"/>
<path d="M54.8605 9.05404V11.4333C54.8605 12.285 54.7059 13.1047 54.3967 13.8924C54.0875 14.6696 53.6556 15.3881 53.1011 16.0482C52.5467 16.7082 51.8962 17.2831 51.1498 17.7727C50.4034 18.2624 49.5877 18.6404 48.7027 18.9065C47.7964 19.1833 46.8581 19.3217 45.8878 19.3217C44.8535 19.3217 43.8778 19.1673 42.9608 18.8586C42.0438 18.5392 41.2121 18.0921 40.4657 17.5173C39.8473 17.0382 39.2448 16.4101 38.6584 15.633C38.0719 14.8559 37.6188 13.9084 37.2989 12.7906C37.0003 11.7899 36.851 10.7467 36.851 9.66084C36.851 8.54306 36.9896 7.51044 37.2669 6.56298C37.5548 5.60488 37.96 4.72662 38.4824 3.92821C39.0689 3.02334 39.7566 2.28879 40.5457 1.72458C41.3454 1.16036 42.1344 0.745188 42.9128 0.479049C43.382 0.330012 43.8725 0.212911 44.3843 0.127747C44.9068 0.0425823 45.4452 0 45.9997 0C46.8954 0 47.7324 0.106455 48.5108 0.319366C49.2999 0.532277 50.0409 0.846321 50.734 1.2615C51.3631 1.64474 51.9442 2.12911 52.4774 2.71461C53.0212 3.30012 53.469 3.97611 53.8209 4.74259C53.9915 5.11519 54.1354 5.50375 54.2527 5.90828C54.3807 6.31281 54.4766 6.73863 54.5406 7.18575H50.702C50.638 6.84509 50.5101 6.48846 50.3181 6.11587C50.1369 5.73263 49.881 5.37068 49.5504 5.03002C48.9533 4.44452 48.2282 4.04531 47.3752 3.8324C46.938 3.72594 46.4795 3.67272 45.9997 3.67272C45.3919 3.67272 44.8055 3.76853 44.2404 3.96015C43.6752 4.14112 43.1741 4.40726 42.7369 4.75856C41.8306 5.4931 41.2068 6.47249 40.8656 7.69673C40.695 8.31418 40.6097 8.97952 40.6097 9.69277C40.6097 10.438 40.7003 11.1193 40.8816 11.7367C41.0735 12.3542 41.3081 12.8705 41.5853 13.2856C41.8732 13.7434 42.2304 14.1533 42.6569 14.5152C43.0941 14.8772 43.6112 15.1593 44.2084 15.3615C44.7628 15.5532 45.3653 15.649 46.0157 15.649C46.4849 15.649 46.938 15.5957 47.3752 15.4893C47.8124 15.3828 48.2176 15.2338 48.5908 15.0422C48.9426 14.8612 49.2732 14.6323 49.5824 14.3555C49.9023 14.0681 50.1689 13.7434 50.3821 13.3815C50.5954 13.0408 50.766 12.6629 50.8939 12.2477H46.0157V9.05404H54.8605Z" fill="black"/>
<path d="M57.5673 19.162V3.67272H54.6083V0.159683H64.2848V3.67272H61.3259V19.162H57.5673Z" fill="black"/>
<path d="M67.7948 9.69277C67.7948 10.3422 67.8748 10.9702 68.0347 11.577C68.2053 12.1838 68.4666 12.7587 68.8185 13.3016C69.1277 13.7807 69.5115 14.2012 69.97 14.5631C70.4392 14.9251 70.951 15.1912 71.5055 15.3615C72.0813 15.5532 72.6837 15.649 73.3128 15.649C74.3471 15.649 75.2588 15.4094 76.0478 14.9304C76.8262 14.4513 77.4233 13.7913 77.8392 12.9503C77.9351 12.748 78.0204 12.5351 78.0951 12.3116C78.1697 12.0774 78.2337 11.8379 78.287 11.593H82.1256C82.0403 12.5192 81.8271 13.3602 81.4859 14.116C81.1553 14.8718 80.7288 15.5638 80.2063 16.1919C79.1081 17.5119 77.7112 18.4274 76.0158 18.9384C75.1628 19.1939 74.2725 19.3217 73.3448 19.3217C72.4171 19.3217 71.4788 19.178 70.5298 18.8905C69.5915 18.6031 68.6798 18.1294 67.7948 17.4693C67.0164 16.8945 66.3447 16.1972 65.7796 15.3775C65.2144 14.5471 64.7879 13.6636 64.5 12.7268C64.3507 12.2477 64.2334 11.7527 64.1481 11.2417C64.0735 10.7307 64.0362 10.2038 64.0362 9.66084C64.0362 8.5537 64.1908 7.52108 64.5 6.56298C64.8199 5.59424 65.2517 4.71598 65.7955 3.92821C66.4033 3.06592 67.1124 2.34734 67.9228 1.77248C68.7331 1.18698 69.5435 0.755834 70.3539 0.479049C70.8231 0.330012 71.3082 0.212911 71.8094 0.127747C72.3105 0.0425823 72.8223 0 73.3448 0C75.1788 0 76.8422 0.484372 78.335 1.45312C79.0494 1.92152 79.6785 2.48574 80.2223 3.14576C80.7661 3.79514 81.198 4.49242 81.5178 5.23761C81.8377 6.00409 82.0403 6.83444 82.1256 7.72867H78.287C78.2017 7.24962 78.0471 6.79718 77.8232 6.37136C77.6099 5.93489 77.3594 5.55698 77.0715 5.23761C76.7729 4.91824 76.4317 4.64146 76.0478 4.40726C75.664 4.16241 75.2428 3.97611 74.7843 3.84837C74.3045 3.73127 73.814 3.67272 73.3128 3.67272C72.6304 3.67272 72.0066 3.77917 71.4415 3.99208C70.8764 4.19435 70.3912 4.44984 69.986 4.75856C69.0584 5.4931 68.4186 6.47249 68.0667 7.69673C67.9708 8.00545 67.9014 8.33014 67.8588 8.6708C67.8161 9.00081 67.7948 9.34147 67.7948 9.69277Z" fill="black"/>
<path d="M88.0462 0.159683H93.1804C94.4919 0.159683 95.5902 0.542923 96.4752 1.3094C96.891 1.682 97.2482 2.15572 97.5468 2.73058C97.856 3.30544 98.0799 3.92821 98.2186 4.59888C98.3678 5.32278 98.4425 6.11055 98.4425 6.96219V12.3595C98.4425 13.2431 98.3678 14.0362 98.2186 14.7388C98.0693 15.4414 97.8453 16.0641 97.5468 16.6071C97.2482 17.1713 96.891 17.6397 96.4752 18.0123C96.0593 18.3742 95.5688 18.6563 95.0037 18.8586C94.4599 19.0609 93.8521 19.162 93.1804 19.162H88.0462V0.159683ZM91.8049 15.649H92.3327C93.9001 15.649 94.6838 14.5525 94.6838 12.3595V6.96219C94.6838 4.76921 93.9001 3.67272 92.3327 3.67272H91.8049V15.649Z" fill="black"/>
<path d="M108.199 19.162H100.202V0.159683H108.119V3.67272H103.96V7.29753H107.799V10.8106H103.96V15.649H108.199V19.162Z" fill="black"/>
<path d="M115.298 5.86038V4.74259C115.298 3.70997 114.951 3.19367 114.258 3.19367C113.938 3.19367 113.688 3.31609 113.507 3.56094C113.325 3.80578 113.235 4.15709 113.235 4.61485C113.235 4.75324 113.245 4.90228 113.267 5.06196C113.299 5.22164 113.368 5.39197 113.475 5.57295C113.56 5.73263 113.688 5.92425 113.858 6.14781C114.029 6.36072 114.242 6.5896 114.498 6.83444C114.626 6.97284 114.77 7.11655 114.93 7.26559C115.079 7.42527 115.25 7.59028 115.442 7.76061C116.018 8.28224 116.545 8.79323 117.025 9.29357C117.516 9.79391 117.916 10.2357 118.225 10.6189C118.534 11.0235 118.779 11.412 118.961 11.7846C119.142 12.1572 119.275 12.5405 119.36 12.9343C119.403 13.1366 119.43 13.3442 119.44 13.5571C119.462 13.77 119.472 13.9936 119.472 14.2278C119.472 14.8665 119.403 15.4573 119.264 16.0003C119.126 16.5325 118.913 17.0116 118.625 17.4374C118.358 17.8419 118.006 18.1879 117.569 18.4754C117.143 18.7628 116.673 18.9704 116.162 19.0981C115.596 19.2472 114.989 19.3217 114.338 19.3217C113.027 19.3217 111.96 19.0396 111.139 18.4754C110.329 17.9218 109.791 17.0968 109.524 16.0003C109.385 15.468 109.316 14.8559 109.316 14.1639V12.4872H112.835V14.1799C112.835 14.7973 112.963 15.2764 113.219 15.617C113.453 15.9577 113.816 16.128 114.306 16.128C114.477 16.128 114.642 16.1067 114.802 16.0641C114.962 16.0109 115.095 15.9311 115.202 15.8246C115.298 15.7288 115.388 15.6117 115.474 15.4733C115.559 15.3243 115.623 15.1433 115.666 14.9304C115.676 14.8346 115.687 14.7334 115.698 14.627C115.708 14.5099 115.714 14.3928 115.714 14.2757C115.714 14.0521 115.698 13.8605 115.666 13.7008C115.634 13.5305 115.57 13.3495 115.474 13.1579C115.367 12.9663 115.218 12.7693 115.026 12.5671C114.845 12.3648 114.631 12.1413 114.386 11.8964C114.248 11.7687 114.093 11.6303 113.922 11.4812C113.762 11.3322 113.586 11.1725 113.395 11.0022C112.797 10.4699 112.275 9.98553 111.827 9.54906C111.39 9.10195 111.017 8.6708 110.708 8.25563C110.398 7.85109 110.153 7.46253 109.972 7.08994C109.801 6.7067 109.673 6.31813 109.588 5.92425C109.545 5.73263 109.513 5.53036 109.492 5.31745C109.481 5.10454 109.476 4.88631 109.476 4.66275C109.476 4.07725 109.535 3.53432 109.652 3.03398C109.78 2.523 109.977 2.07588 110.244 1.69264C110.766 0.947454 111.523 0.447113 112.515 0.191619C113.005 0.0638731 113.565 0 114.194 0C115.388 0 116.369 0.239525 117.137 0.718574C117.393 0.878257 117.665 1.12843 117.953 1.46909C118.241 1.80974 118.465 2.27282 118.625 2.85833C118.753 3.33738 118.817 3.86966 118.817 4.45516V5.86038H115.298Z" fill="black"/>
<path d="M121.077 19.162V0.159683H124.835V19.162H121.077Z" fill="black"/>
<path d="M144.452 9.05404V11.4333C144.452 12.285 144.297 13.1047 143.988 13.8924C143.679 14.6696 143.247 15.3881 142.692 16.0482C142.138 16.7082 141.488 17.2831 140.741 17.7727C139.995 18.2624 139.179 18.6404 138.294 18.9065C137.388 19.1833 136.449 19.3217 135.479 19.3217C134.445 19.3217 133.469 19.1673 132.552 18.8586C131.635 18.5392 130.803 18.0921 130.057 17.5173C129.439 17.0382 128.836 16.4101 128.25 15.633C127.663 14.8559 127.21 13.9084 126.89 12.7906C126.592 11.7899 126.442 10.7467 126.442 9.66084C126.442 8.54306 126.581 7.51044 126.858 6.56298C127.146 5.60488 127.551 4.72662 128.074 3.92821C128.66 3.02334 129.348 2.28879 130.137 1.72458C130.937 1.16036 131.726 0.745188 132.504 0.479049C132.973 0.330012 133.464 0.212911 133.976 0.127747C134.498 0.0425823 135.037 0 135.591 0C136.487 0 137.324 0.106455 138.102 0.319366C138.891 0.532277 139.632 0.846321 140.325 1.2615C140.954 1.64474 141.536 2.12911 142.069 2.71461C142.612 3.30012 143.06 3.97611 143.412 4.74259C143.583 5.11519 143.727 5.50375 143.844 5.90828C143.972 6.31281 144.068 6.73863 144.132 7.18575H140.293C140.229 6.84509 140.101 6.48846 139.909 6.11587C139.728 5.73263 139.472 5.37068 139.142 5.03002C138.545 4.44452 137.82 4.04531 136.967 3.8324C136.529 3.72594 136.071 3.67272 135.591 3.67272C134.983 3.67272 134.397 3.76853 133.832 3.96015C133.267 4.14112 132.765 4.40726 132.328 4.75856C131.422 5.4931 130.798 6.47249 130.457 7.69673C130.286 8.31418 130.201 8.97952 130.201 9.69277C130.201 10.438 130.292 11.1193 130.473 11.7367C130.665 12.3542 130.899 12.8705 131.177 13.2856C131.465 13.7434 131.822 14.1533 132.248 14.5152C132.685 14.8772 133.203 15.1593 133.8 15.3615C134.354 15.5532 134.957 15.649 135.607 15.649C136.076 15.649 136.529 15.5957 136.967 15.4893C137.404 15.3828 137.809 15.2338 138.182 15.0422C138.534 14.8612 138.864 14.6323 139.174 14.3555C139.494 14.0681 139.76 13.7434 139.973 13.3815C140.187 13.0408 140.357 12.6629 140.485 12.2477H135.607V9.05404H144.452Z" fill="black"/>
<path d="M149.803 14.5152V19.162H146.044V0.159683H150.442L151.866 5.26955C151.994 5.70602 152.127 6.19571 152.266 6.73863C152.404 7.27091 152.538 7.80851 152.666 8.35143C152.794 8.88371 152.9 9.35744 152.985 9.77262C153.177 10.6562 153.348 11.4759 153.497 12.2317C153.647 12.9876 153.796 13.7647 153.945 14.5631C154.009 14.9464 154.068 15.3189 154.121 15.6809C154.174 16.0535 154.228 16.4154 154.281 16.7667H154.601C154.516 16.2025 154.436 15.6969 154.361 15.2498C154.286 14.792 154.212 14.3236 154.137 13.8445C154.062 13.3655 153.982 12.796 153.897 12.1359C153.822 11.6675 153.748 11.1406 153.673 10.5551C153.599 9.95891 153.529 9.37341 153.465 8.79855C153.401 8.21304 153.359 7.69673 153.337 7.24962C153.305 6.85573 153.279 6.4725 153.257 6.0999C153.247 5.71666 153.241 5.34939 153.241 4.99809V0.159683H157V19.162H152.842L151.37 14.2278C151.263 13.8871 151.141 13.4613 151.002 12.9503C150.864 12.4393 150.714 11.8964 150.554 11.3215C150.405 10.736 150.266 10.1612 150.138 9.59696C149.957 8.81984 149.776 8.02142 149.595 7.20172C149.413 6.37136 149.253 5.55698 149.115 4.75856C149.04 4.37532 148.971 3.9974 148.907 3.62481C148.843 3.25222 148.784 2.89559 148.731 2.55493H148.411C148.518 3.24689 148.635 3.98144 148.763 4.75856C148.891 5.52504 149.019 6.33943 149.147 7.20172C149.253 8.03207 149.36 8.87307 149.467 9.72471C149.573 10.5657 149.659 11.3907 149.723 12.1998C149.744 12.6043 149.76 13.0035 149.771 13.3974C149.792 13.7807 149.803 14.1533 149.803 14.5152Z" fill="black"/>
<path d="M0.719739 24.838H6.31771C7.73587 24.838 8.85013 25.365 9.6605 26.4189C10.0444 26.9192 10.3429 27.5367 10.5562 28.2712C10.7694 29.0057 10.8761 29.8254 10.8761 30.7303C10.8761 31.4329 10.8121 32.0929 10.6841 32.7104C10.5562 33.3172 10.3536 33.8708 10.0764 34.3711C9.80978 34.8501 9.49523 35.2547 9.13269 35.5847C8.78082 35.9147 8.35964 36.1702 7.86915 36.3512C7.39999 36.5215 6.88284 36.6067 6.31771 36.6067H4.47838V43.8403H0.719739V24.838ZM4.47838 33.0936H5.35806C5.54999 33.0936 5.74192 33.067 5.93385 33.0138C6.12578 32.9499 6.30172 32.8381 6.46166 32.6785C6.61094 32.5294 6.72823 32.3697 6.81353 32.1994C6.9095 32.0291 6.98947 31.8055 7.05345 31.5287C7.07477 31.4116 7.09077 31.2892 7.10143 31.1615C7.11209 31.0231 7.11742 30.8794 7.11742 30.7303C7.11742 30.4535 7.09077 30.1927 7.03745 29.9479C6.9948 29.6924 6.92016 29.4635 6.81353 29.2612C6.7069 29.0696 6.58428 28.9099 6.44567 28.7822C6.31771 28.6438 6.15777 28.532 5.96584 28.4468C5.79523 28.383 5.59264 28.351 5.35806 28.351H4.47838V33.0936Z" fill="black"/>
<path d="M12.4692 43.8403V24.838H16.2279V40.3273H20.1465V43.8403H12.4692Z" fill="black"/>
<path d="M20.9512 43.8403L23.9261 24.838H29.3001L32.2751 43.8403H28.5164L27.9566 39.481H25.2696L24.7098 43.8403H20.9512ZM25.7174 35.9679H27.5088L26.869 30.0117C26.8477 29.7669 26.8317 29.5487 26.821 29.357C26.8104 29.1548 26.7997 28.9419 26.789 28.7183C26.7784 28.4841 26.7731 28.202 26.7731 27.872H26.4532V28.3351C26.4532 28.4096 26.4532 28.4841 26.4532 28.5586C26.4425 28.6438 26.4372 28.7236 26.4372 28.7982C26.4372 28.9046 26.4318 29.0164 26.4212 29.1335C26.4105 29.2399 26.4052 29.3464 26.4052 29.4529C26.4052 29.6658 26.3892 29.8521 26.3572 30.0117L25.7174 35.9679Z" fill="black"/>
<path d="M35.0654 24.838L36.297 30.0597C36.361 30.3151 36.4036 30.5174 36.4249 30.6664C36.4569 30.8155 36.4836 30.9698 36.5049 31.1295C36.5369 31.2786 36.5742 31.4968 36.6169 31.7842C36.6595 32.061 36.6968 32.3644 36.7288 32.6944C36.7608 33.0244 36.7821 33.3065 36.7928 33.5407C36.7928 33.6685 36.7981 33.8016 36.8088 33.94C36.8088 34.0783 36.8088 34.2114 36.8088 34.3392H37.1287C37.1287 34.105 37.134 33.8388 37.1447 33.5407C37.166 33.232 37.1927 32.9446 37.2246 32.6785C37.246 32.391 37.2726 32.0983 37.3046 31.8002C37.3473 31.4915 37.4006 31.1881 37.4646 30.89C37.4859 30.7516 37.5125 30.6132 37.5445 30.4748C37.5765 30.3364 37.6085 30.198 37.6405 30.0597L38.872 24.838H42.6307L38.8561 37.1496V43.8403H35.0974V37.1496L31.3068 24.838H35.0654Z" fill="black"/>
<path d="M53.7468 29.4369C53.7468 30.725 53.4589 31.6991 52.8831 32.3591C52.3073 33.0085 51.3796 33.4396 50.1001 33.6525V33.908C50.6013 33.9719 51.0598 34.0837 51.4756 34.2434C51.9021 34.403 52.2806 34.6266 52.6112 34.914C52.9311 35.1908 53.203 35.5261 53.4269 35.92C53.6508 36.3139 53.8108 36.7291 53.9067 37.1656C54.0134 37.6446 54.0667 38.1769 54.0667 38.7624C54.0667 39.3798 53.9974 39.9547 53.8587 40.487C53.7308 41.0192 53.5335 41.493 53.267 41.9081C52.9791 42.3446 52.6432 42.7066 52.2593 42.994C51.8755 43.2708 51.4543 43.4784 50.9958 43.6168C50.5053 43.7658 49.9721 43.8403 49.3964 43.8403H43.7504V24.838H49.2524C49.7962 24.838 50.3027 24.9072 50.7719 25.0456C51.2517 25.1733 51.6729 25.365 52.0354 25.6205C52.3873 25.8866 52.6858 26.1953 52.9311 26.5466C53.187 26.8979 53.3949 27.3291 53.5549 27.8401C53.6188 28.0849 53.6668 28.3404 53.6988 28.6065C53.7308 28.8727 53.7468 29.1495 53.7468 29.4369ZM48.2928 28.351H47.509V32.2952H48.2928C48.7299 32.2952 49.0871 32.1781 49.3644 31.9439C49.4923 31.8375 49.599 31.7097 49.6843 31.5607C49.7802 31.4116 49.8602 31.2253 49.9242 31.0018C49.9455 30.8953 49.9615 30.7889 49.9721 30.6824C49.9828 30.5653 49.9881 30.4482 49.9881 30.3311C49.9881 29.8414 49.8922 29.4316 49.7002 29.1015C49.6043 28.9525 49.487 28.8194 49.3484 28.7023C49.2098 28.5746 49.0551 28.4841 48.8845 28.4309C48.682 28.3777 48.4847 28.351 48.2928 28.351ZM47.509 40.3273H48.4847C48.9432 40.3273 49.3217 40.1995 49.6203 39.944C49.7802 39.8163 49.9082 39.6619 50.0041 39.481C50.1001 39.2893 50.1747 39.0764 50.2281 38.8422C50.2814 38.5867 50.308 38.3259 50.308 38.0598C50.308 37.8043 50.276 37.5541 50.2121 37.3093C50.1588 37.0538 50.0841 36.8355 49.9881 36.6546C49.7642 36.2713 49.471 36.0212 49.1085 35.9041C48.9165 35.8402 48.7086 35.8082 48.4847 35.8082H47.509V40.3273Z" fill="black"/>
<path d="M54.8795 34.2274C54.8795 33.1735 55.0448 32.1781 55.3753 31.2413C55.7059 30.2939 56.1697 29.4156 56.7668 28.6065C57.3533 27.8081 58.0517 27.1162 58.8621 26.5306C59.6831 25.9451 60.5628 25.4927 61.5011 25.1733C61.9703 25.0137 62.4554 24.8912 62.9566 24.8061C63.4684 24.7209 63.9855 24.6783 64.508 24.6783C65.585 24.6783 66.5979 24.8487 67.5469 25.1893C68.4959 25.5193 69.3649 25.9664 70.154 26.5306C71.0603 27.2013 71.796 27.9518 72.3612 28.7822C72.9263 29.6019 73.3475 30.4163 73.6247 31.2253C73.7847 31.7044 73.9073 32.1941 73.9926 32.6944C74.0779 33.1948 74.1205 33.7058 74.1205 34.2274C74.1205 35.2706 73.9553 36.2873 73.6247 37.2773C73.3048 38.2674 72.8517 39.1722 72.2652 39.9919C71.6681 40.801 70.959 41.5089 70.138 42.1157C69.3276 42.7119 68.4586 43.1696 67.5309 43.489C66.5606 43.8297 65.553 44 64.508 44C63.4417 44 62.4288 43.8297 61.4691 43.489C60.5095 43.1484 59.6351 42.6853 58.8461 42.0998C58.0463 41.5036 57.3479 40.8063 56.7508 40.0079C56.1644 39.2095 55.7059 38.3046 55.3753 37.2933C55.2154 36.8143 55.0928 36.3192 55.0075 35.8082C54.9221 35.2866 54.8795 34.7597 54.8795 34.2274ZM58.6381 34.2593C58.6381 34.9087 58.7394 35.5474 58.942 36.1755C59.1446 36.8036 59.4219 37.3572 59.7737 37.8362C60.1576 38.3685 60.5948 38.8209 61.0852 39.1935C61.5757 39.5555 62.1035 39.8269 62.6687 40.0079C63.2658 40.2208 63.8842 40.3273 64.524 40.3273C65.1638 40.3273 65.7769 40.2261 66.3633 40.0239C66.9498 39.811 67.4829 39.5182 67.9628 39.1456C68.4426 38.7837 68.8638 38.3525 69.2263 37.8522C69.5888 37.3412 69.8661 36.7823 70.058 36.1755C70.154 35.8774 70.2286 35.5687 70.2819 35.2494C70.3352 34.93 70.3619 34.6 70.3619 34.2593C70.3619 33.6312 70.2606 33.0191 70.058 32.423C69.8554 31.8162 69.5782 31.2732 69.2263 30.7942C68.4799 29.7829 67.5203 29.0696 66.3473 28.6544C65.7609 28.4522 65.1531 28.351 64.524 28.351C64.0122 28.351 63.4577 28.4362 62.8606 28.6065C62.2635 28.7662 61.6664 29.0643 61.0693 29.5008C60.5788 29.8627 60.1469 30.2885 59.7737 30.7782C59.4112 31.2679 59.134 31.8055 58.942 32.391C58.8461 32.6891 58.7714 32.9978 58.7181 33.3172C58.6648 33.6259 58.6381 33.94 58.6381 34.2593Z" fill="black"/>
<path d="M75.2352 34.2274C75.2352 33.1735 75.4005 32.1781 75.7311 31.2413C76.0616 30.2939 76.5254 29.4156 77.1226 28.6065C77.709 27.8081 78.4074 27.1162 79.2178 26.5306C80.0388 25.9451 80.9185 25.4927 81.8568 25.1733C82.326 25.0137 82.8112 24.8912 83.3123 24.8061C83.8241 24.7209 84.3413 24.6783 84.8638 24.6783C85.9407 24.6783 86.9537 24.8487 87.9027 25.1893C88.8517 25.5193 89.7207 25.9664 90.5097 26.5306C91.4161 27.2013 92.1518 27.9518 92.7169 28.7822C93.282 29.6019 93.7032 30.4163 93.9805 31.2253C94.1404 31.7044 94.263 32.1941 94.3483 32.6944C94.4336 33.1948 94.4763 33.7058 94.4763 34.2274C94.4763 35.2706 94.311 36.2873 93.9805 37.2773C93.6606 38.2674 93.2074 39.1722 92.621 39.9919C92.0238 40.801 91.3148 41.5089 90.4937 42.1157C89.6834 42.7119 88.8143 43.1696 87.8867 43.489C86.9164 43.8297 85.9087 44 84.8638 44C83.7975 44 82.7845 43.8297 81.8249 43.489C80.8652 43.1484 79.9909 42.6853 79.2018 42.0998C78.4021 41.5036 77.7037 40.8063 77.1066 40.0079C76.5201 39.2095 76.0616 38.3046 75.7311 37.2933C75.5711 36.8143 75.4485 36.3192 75.3632 35.8082C75.2779 35.2866 75.2352 34.7597 75.2352 34.2274ZM78.9939 34.2593C78.9939 34.9087 79.0952 35.5474 79.2978 36.1755C79.5004 36.8036 79.7776 37.3572 80.1295 37.8362C80.5133 38.3685 80.9505 38.8209 81.441 39.1935C81.9315 39.5555 82.4593 39.8269 83.0244 40.0079C83.6215 40.2208 84.24 40.3273 84.8797 40.3273C85.5195 40.3273 86.1326 40.2261 86.7191 40.0239C87.3055 39.811 87.8387 39.5182 88.3185 39.1456C88.7983 38.7837 89.2195 38.3525 89.5821 37.8522C89.9446 37.3412 90.2218 36.7823 90.4137 36.1755C90.5097 35.8774 90.5844 35.5687 90.6377 35.2494C90.691 34.93 90.7176 34.6 90.7176 34.2593C90.7176 33.6312 90.6163 33.0191 90.4137 32.423C90.2112 31.8162 89.9339 31.2732 89.5821 30.7942C88.8357 29.7829 87.876 29.0696 86.7031 28.6544C86.1166 28.4522 85.5089 28.351 84.8797 28.351C84.3679 28.351 83.8135 28.4362 83.2164 28.6065C82.6192 28.7662 82.0221 29.0643 81.425 29.5008C80.9345 29.8627 80.5027 30.2885 80.1295 30.7782C79.7669 31.2679 79.4897 31.8055 79.2978 32.391C79.2018 32.6891 79.1272 32.9978 79.0739 33.3172C79.0205 33.6259 78.9939 33.94 78.9939 34.2593Z" fill="black"/>
<path d="M99.8295 24.838V28.3191C99.8295 28.5852 99.8135 28.862 99.7815 29.1495C99.7602 29.4369 99.7228 29.7509 99.6695 30.0916C99.6056 30.4322 99.5416 30.7835 99.4776 31.1455C99.4136 31.5074 99.3336 31.8854 99.2377 32.2792C99.1844 32.4709 99.1364 32.6625 99.0937 32.8541C99.0404 33.0564 98.9871 33.2586 98.9338 33.4609H99.2537C99.2857 33.3332 99.3283 33.1469 99.3816 32.902C99.4456 32.6465 99.5149 32.391 99.5896 32.1355C99.6642 31.88 99.7335 31.6618 99.7975 31.4808C99.9041 31.1402 99.9841 30.8847 100.037 30.7144C100.101 30.5334 100.165 30.3577 100.229 30.1874C100.293 30.0171 100.389 29.7775 100.517 29.4688C100.581 29.3091 100.645 29.1548 100.709 29.0057C100.773 28.8461 100.837 28.697 100.901 28.5586L102.628 24.838H106.387L102.788 32.2792L106.707 43.8403H102.948L100.437 36.431L99.8295 37.3252V43.8403H96.0708V24.838H99.8295Z" fill="black"/>
</g>
<defs>
<clipPath id="clip0_2058_3320">
<rect width="157" height="44" fill="white"/>
</clipPath>
</defs>
</svg>
